<?xml version="1.0" encoding="UTF-8"?><svg id="a" xmlns="http://www.w3.org/2000/svg" viewBox="0 0 598.38 939.92"><defs><style>.b{fill:#fff;opacity:.2;}</style></defs><rect class="b" x="276.22" y="289.84" width=".39" height=".41" transform="translate(-62.83 76.87) rotate(-14.23)"/><rect class="b" x="277.27" y="289.57" width=".41" height=".41" transform="translate(-62.62 76.94) rotate(-14.2)"/><rect class="b" x="277.02" y="288.58" width=".41" height=".4" transform="translate(-62.38 76.85) rotate(-14.2)"/><path class="b" d="M284.07,286.31c.06-.1,.09-.14,.15-.28l.9-.23c.16,.1,.21,.13,.3,.18,0-.06-.02-.13-.05-.23l-.07-.29-1.36,.34,.06,.25c.03,.12,.04,.17,.07,.24Z"/><polygon class="b" points="296.52 284.27 296.61 284.65 297.06 284.53 296.97 284.16 296.52 284.27"/><rect class="b" x="296.32" y="283.29" width=".46" height=".34" transform="translate(-60.41 81.3) rotate(-14.18)"/><path class="b" d="M306.04,319.96s-.05-.09-.11-.22c-.01,.11-.01,.13-.03,.24l-.25,1.47,1.08-.17-.68-1.33Z"/><rect class="b" x="275.97" y="288.85" width=".39" height=".4" transform="translate(-62.25 76.23) rotate(-14.14)"/><rect class="b" x="300.04" y="320.54" width="2.6" height="2.44" transform="translate(-45.15 49.21) rotate(-8.69)"/><path class="b" d="M299.18,281.74l.08,.31c.04,.18,.09,.37,.12,.47,.02,.12,.04,.2,.05,.22l.03,.13,1.11-.28-.28-1.12-1.1,.28Z"/><rect class="b" x="289.58" y="283.51" width="3.89" height=".35" transform="translate(-60.52 79.9) rotate(-14.15)"/><path class="b" d="M292.96,285.43l.36-.27-1.2,.3c-.06,.23-.09,.31-.15,.5q.72-.2,1.28-.38c-.1-.06-.14-.09-.28-.15Z"/><path class="b" d="M287.24,287.39c-.96-.14-1.58-.35-2.39-.81-.43,.72-.93,1.27-1.66,1.83,.11-.02,.21-.04,.38-.09l1.17-.29-.06-.23c-.06-.24-.11-.39-.18-.56l.94-.24c.01,.17,.05,.33,.11,.58l.06,.23,1.27-.32c.18-.04,.24-.06,.36-.1Z"/><polygon class="b" points="296.5 282.31 296.05 282.42 296.14 282.76 296.59 282.65 296.5 282.31"/><path class="b" d="M332.94,277.7c-.06-.38,.21-.75,.59-.81,40.25-7.19,72.44-11.78,106.64-17.67,16.25-2.8,32.96-5.89,51.21-9.7,29.7-6.19,63.47-14.27,105.99-26.03,.23-.06,.42-.24,.5-.48l.25-.77c-124.17,34.42-173.95,37.45-264.69,53.64-.4,.07-.78-.2-.84-.6l-1.06-7.12c-.06-.4-.44-.67-.84-.6l-17.96,3.17c-.53,.09-.97-.41-.81-.92l3.28-10.63c.08-.26,.3-.45,.57-.5l18.63-3.04c.39-.06,.66-.43,.59-.82l-.5-3.14c-.06-.39-.43-.66-.82-.6l-67.7,10.35c-.39,.06-.65,.42-.6,.8l.41,3.16c.05,.4,.42,.68,.82,.62l35.08-5.24c.53-.08,.96,.43,.79,.94l-3.82,11.17c-.08,.24-.29,.42-.54,.47-13.98,2.7-30.67,7.39-37.26,10.07-.28,.11-.6-.01-.71-.3-.73-1.78-3.17-7.74-3.79-9.25-.09-.22-.29-.38-.52-.43l-74.81-14.72c-.12-.02-.24-.08-.33-.16L60.4,154.29c-.12-.11-.28-.17-.44-.17l-9.14-.41c-.4-.02-.71-.36-.68-.77l2.12-32.17c.03-.41-.3-.77-.72-.77h-4.43c-.38,0-.69,.29-.72,.66l-3.86,49.19c-.03,.41,.29,.77,.7,.77l5.33,.11c.42,0,.74,.37,.7,.78l-2.98,33.34c-.03,.37-.34,.65-.72,.65H21.96c-.38,0-.69,.29-.72,.67l-1.12,16.1c-.03,.41,.29,.76,.7,.77l42.66,1.24c.16,0,.31,.06,.44,.16l17.8,14.61c.06,.05,.13,.09,.21,.12l18.22,6.62c.07,.03,.14,.04,.22,.05,7.18,.35,25.66-6.17,28.6-7.22,.25-.09,.52-.03,.72,.14l41.01,36.33c.31,.28,.8,.23,1.05-.11l2.1-2.79c.15-.2,.4-.31,.65-.28l9.81,1.01c.35,.04,.62,.32,.64,.67l.82,12.15c.02,.36-.22,.68-.57,.75l-4.84,.98c-.35,.07-.6,.4-.57,.76l1.26,16.99c.03,.45,.48,.76,.92,.64l4.74-1.36c.33-.09,.54-.41,.52-.75l-.1-1.29c-.03-.35,.2-.66,.53-.75l7.99-2.13c.34-.09,.56-.41,.53-.76l-2.21-23.82c-.04-.47,.38-.86,.84-.77l48.73,8.85c.26,.05,.48,.24,.56,.49l1.68,5.32c.11,.35-.06,.73-.4,.88l-7.48,3.22c-.35,.15-.52,.55-.39,.91l2.31,6.25c.13,.36-.04,.76-.39,.91C156.79,335.75,81.32,408.45,0,463.24l.51,1.13c22.48-15.58,43.59-31.22,63.01-45.88,32.34-24.68,63.57-49.43,95.98-71.46,26.43-18.13,52.36-33.44,80.2-45.03,.38-.16,.81,.03,.96,.42l.2,.54c.13,.36-.04,.76-.39,.9-26.06,11.08-50.99,25.55-75.5,41.92-18.56,12.41-36.89,25.92-55.27,39.87-32.99,25.05-66.18,51.56-101.33,75.84-2.52,1.74-5.05,3.47-7.59,5.18-.16,.11-.28,.29-.31,.48l-.17,1.06c84.12-56.67,156.46-127.61,240.44-163.39,.38-.16,.82,.03,.96,.42l1.96,5.32c.14,.38,.56,.57,.93,.42l9.48-3.65c.34-.13,.73,.01,.9,.34l9.07,17.49c.2,.38,.02,.85-.39,1l-28.06,10.39c-.37,.14-.56,.55-.43,.92l1.14,3.17c.13,.37,.54,.57,.92,.43l33.25-11.82s.09-.03,.13-.03l38.35-5.94c.4-.06,.67-.44,.6-.84l-.67-3.78c-.07-.39-.43-.65-.82-.58l-34.58,5.44c-.31,.05-.62-.11-.76-.4l-8.82-18.26c-.19-.39,.02-.87,.43-1,35.52-11.49,64.51-14.91,69.45-15.43,.41-.04,.69-.42,.63-.82l-1.04-6.94c-.06-.38,.21-.75,.59-.81,91.34-16.26,142.17-19.53,264.41-53.55l-.64-.86c-42.03,11.69-75.6,19.73-105.29,25.93h0c-1.03,.21-3.06,.63-3.06,.63h0c-17.76,3.65-35.13,6.83-51.21,9.57-33.21,5.67-65.01,10.28-104.33,17.28-.4,.07-.78-.2-.84-.6l-.08-.56Zm-28.36,45.05l.63-3.08c.05-.26,.07-.4,.08-.54l1.06-.16c.05,.12,.09,.22,.25,.49l1.53,2.75c.13,.24,.25,.44,.33,.56l-.98,.15c-.07-.2-.14-.36-.21-.5l-.24-.45-1.49,.23-.09,.51c-.04,.23-.05,.37-.05,.54l-.98,.15c.06-.16,.1-.33,.16-.63Zm-4.96-2.63l2.9-.44c.24-.04,.38-.06,.55-.11,0,.19,.02,.32,.06,.56l.44,2.88c.04,.27,.08,.48,.13,.65l-.72,.11-.05-.34-2.57,.39,.05,.34-.73,.11c0-.18-.03-.37-.07-.66l-.44-2.88c-.03-.22-.06-.37-.11-.55,.18,0,.32-.02,.56-.06Zm-5.14,.77l1.29-.2c-.03-.18-.05-.25-.09-.37l.71-.11c0,.13,0,.23,.03,.38l1.35-.21c.28-.04,.47-.08,.6-.12l.1,.64c-.17,0-.37,.02-.61,.06l-1.35,.21,.04,.29,1.31-.2c.22-.03,.33-.06,.46-.09,0,.14,.02,.26,.05,.45l.35,2.28c.08,.52-.04,.67-.68,.76-.12,.02-.28,.04-.45,.05-.05-.23-.11-.37-.24-.6,.2,0,.39-.01,.53-.04,.18-.03,.21-.05,.19-.17l-.21-1.35c-.06-.39-.43-.66-.82-.6l-1.1,.17c.17,.23,.19,.26,.3,.46l.31-.05c.07-.2,.11-.33,.14-.52l.61,.03-.04,.12c-.05,.17-.06,.2-.1,.28h.07c.22-.04,.29-.06,.41-.09l.09,.57c-.14,0-.23,.02-.43,.05l-.52,.08,.05,.31,.51-.08c.22-.03,.29-.05,.4-.08l.09,.57c-.12,0-.21,.02-.42,.05l-.5,.08,.04,.23c.04,.26,.07,.42,.12,.59l-.66,.1c0-.18-.03-.35-.07-.61l-.04-.23-.4,.06c-.21,.03-.29,.05-.45,.09l-.09-.57c.15,0,.22-.01,.47-.05l.38-.06-.05-.31-.52,.08c-.19,.03-.25,.04-.36,.08l-.09-.57c.14,0,.2-.01,.44-.05-.08-.14-.15-.24-.23-.34l.54-.21-.98,.15,.34,2.24c.05,.31,.07,.42,.11,.57l-.69,.11c0-.16-.02-.33-.06-.61l-.36-2.34c-.03-.19-.05-.32-.09-.44,.16,0,.28-.02,.5-.06l1.2-.18-.04-.29-1.29,.2c-.24,.04-.43,.08-.6,.12l-.1-.64c.16,0,.35-.02,.61-.06Zm-26.19-32.12c.27-.03,.48-.08,.91-.19l3.33-.84c.43-.11,.64-.17,.92-.27l.25,.98c-.3,.04-.53,.09-.94,.19l-3.32,.84c-.47,.12-.65,.17-.91,.27l-.25-.98Zm5.55,2.03c-.29,.04-.51,.09-.83,.17l-2.63,.66c-.37,.09-.58,.15-.82,.25l-.25-1c.22-.03,.44-.07,.83-.16l2.65-.67c.33-.08,.56-.16,.82-.25l.25,1Zm.5,2.38l-4.05,1.02c-.46,.12-.72,.19-1.04,.31l-.25-1c.3-.04,.58-.1,1.03-.21l4.05-1.02c.42-.11,.7-.19,.99-.3l.25,1c-.29,.03-.49,.07-.99,.2Zm4.16-1.61l-.67,.17,.09,.35c.06,.22,.11,.39,.19,.58l-.88,.22c-.02-.21-.06-.4-.12-.64l-.08-.31-.6,.15c-.31,.08-.44,.12-.63,.2l-.21-.82c.19-.02,.31-.04,.65-.13l.6-.15-.08-.33-.35,.09c-.31,.08-.47,.12-.68,.19-.02-.17-.07-.39-.16-.76l-.31-1.23c-.09-.35-.14-.53-.21-.73,.2-.04,.31-.06,.68-.15l.37-.09-.08-.31-.55,.14c-.3,.08-.43,.12-.63,.19l-.2-.8c.21-.02,.32-.04,.65-.13l.55-.14-.02-.07c-.05-.19-.1-.33-.17-.51l.88-.22c.02,.18,.04,.32,.09,.53l.02,.07,.46-.11c.33-.08,.43-.12,.63-.2l.2,.8c-.2,.02-.29,.04-.64,.13l-.46,.12,.08,.31,.46-.12c.33-.08,.41-.1,.55-.16,.02,.14,.05,.29,.15,.68l.34,1.34c.1,.39,.14,.53,.2,.7-.17,.03-.25,.05-.59,.14l-.43,.11,.08,.33,.58-.15c.33-.08,.43-.11,.62-.19l.21,.81c-.22,.03-.31,.04-.56,.1Zm2.46-.46c.08,.32,.18,.61,.25,.8l-.98,.25c-.02-.23-.08-.51-.16-.83l-.53-2.11-.39,.1c-.29,.07-.45,.12-.63,.19l-.23-.92c.19-.02,.34-.05,.65-.13l.39-.1-.37-1.47-.33,.08c-.33,.08-.45,.12-.63,.19l-.22-.89c.22-.02,.4-.06,.74-.14l1.46-.37c.33-.08,.51-.13,.71-.22l.22,.89c-.2,.02-.32,.04-.65,.13l-.43,.11,.37,1.47,.52-.13c.31-.08,.46-.12,.62-.19l.23,.92c-.2,.02-.35,.05-.64,.12l-.52,.13,.53,2.11Zm2.5,.09c-.27-.26-.49-.4-.8-.54,.39-.32,.58-.51,.79-.8,.21-.28,.31-.47,.39-.7l.88,.23c-.3,.71-.65,1.21-1.26,1.81Zm1.95-.35c-.03-.24-.08-.51-.15-.77l-.32-1.28-1.07,.27c-.34,.09-.55,.15-.78,.24l-.17-.68c-.14,.09-.22,.14-.45,.29-.22-.37-.36-.53-.6-.74,.9-.47,1.65-1.08,2.12-1.73l-.78,.2c0-.12-.03-.23-.05-.33l-.07-.27-.7,.18c-.36,.09-.58,.15-.8,.24l-.22-.86c.22-.03,.46-.07,.82-.16l.7-.18-.02-.1c-.03-.14-.07-.24-.12-.36l.91-.23c0,.11,.03,.24,.07,.37l.02,.1,1.36-.34-.02-.09c-.03-.12-.08-.25-.12-.36l.91-.23c0,.12,.03,.24,.07,.37l.02,.09,.77-.2c.36-.09,.59-.16,.79-.24l.22,.86c-.24,.02-.46,.07-.81,.16l-.77,.2,.07,.27c.03,.12,.06,.2,.11,.33l-.78,.2c.74,.34,1.66,.49,2.75,.47-.11,.35-.15,.54-.17,.96-.28-.02-.38-.03-.51-.04l.17,.67c-.25,.03-.48,.08-.83,.17l-1.15,.29,.32,1.28c.07,.28,.15,.55,.23,.75l-.95,.24Zm2.99-.89c-.87-.21-1.42-.46-2.07-.94l.64-.64c.51,.4,.95,.57,1.81,.7-.17,.3-.25,.47-.38,.88Zm6.47-1.69l-3.4,.86c-.39,.1-.66,.18-.87,.26l-.2-.78c.2-.03,.39-.07,.79-.17l1.32-.33-.1-.39-.96,.24c-.29,.07-.47,.13-.69,.2l-.19-.74c.19-.03,.3-.06,.71-.16l.95-.24-.1-.41q-1.43,.44-1.57,.5l-.28-.72c.15-.02,.22-.03,.46-.09,.04-.01,.27-.07,.33-.08,.08-.21,.11-.32,.15-.52l-1.15,.29c.17,.86,.23,1.33,.27,1.94,.03,.66-.01,1.09-.17,1.68-.33-.26-.55-.4-.9-.57,.13-.44,.17-.75,.15-1.25-.02-.78-.21-1.87-.61-3.45-.11-.43-.17-.64-.26-.87,.25-.03,.5-.08,.93-.19l3.82-.96c.35-.09,.54-.14,.75-.23,.04,.23,.06,.31,.12,.58l.17,.69c.06,.25,.08,.33,.15,.51-.23,.04-.45,.09-.75,.17l-3.89,.98,.07,.29,3.95-.99c.42-.11,.58-.15,.77-.22l.18,.73c-.22,.03-.36,.06-.7,.15l-.33,.08c.39,.21,.57,.33,1.18,.74l-.64,.6c-.22-.18-.28-.23-.43-.35-.35,.12-.65,.21-.9,.3l.11,.46,1.16-.29c.41-.1,.51-.14,.65-.19l.19,.74c-.22,.03-.41,.07-.68,.14l-1.15,.29,.1,.39,1.43-.36c.46-.11,.62-.16,.8-.23l.2,.78c-.25,.03-.47,.08-.93,.19Zm1.88-.56l-.62-.14c.06-.61,.02-1.14-.14-1.88l.56-.02c.19,.99,.23,1.39,.21,2.04Zm.32-.37c-.07-.37-.09-.45-.21-.9-.06-.26-.12-.45-.24-.79l.35-.15c.2,.5,.35,.97,.48,1.48,.01,.05,.03,.11,.05,.18l-.44,.19Zm.03-1.83l.3-.16c.19,.36,.33,.68,.54,1.24l-.34,.22c-.12-.44-.29-.9-.49-1.3Zm1.7,1.74c-.13,.16-.33,.25-.74,.35l-.11,.03c-.1-.34-.2-.54-.36-.78,.2-.01,.3-.03,.44-.07,.17-.04,.22-.11,.22-.3,0-.14,0-.25-.04-.45l-.26,.22c-.13-.36-.24-.59-.42-.9l.25-.16c.16,.23,.29,.45,.43,.8-.04-.26-.08-.43-.21-.99l-1.44,.36c-.25,.06-.41,.11-.58,.18-.02-.18-.06-.37-.14-.66l-.55-2.18c-.1-.39-.16-.61-.24-.82,.2-.03,.41-.07,.78-.17l1.27-.32c.33-.08,.51-.14,.75-.23l.2,.78c-.19,.03-.31,.05-.54,.11l-.28,.07,.08,.34,.2-.05c.23-.06,.35-.1,.48-.15l.16,.64c-.17,.02-.28,.04-.49,.09l-.2,.05,.08,.33,.2-.05c.22-.06,.36-.1,.47-.15l.16,.65c-.14,.01-.29,.04-.49,.09l-.2,.05,.09,.37,.24-.06c.27-.07,.38-.1,.52-.16,.01,.08,.01,.11,.04,.23,.15,.63,.29,1.37,.35,1.86,.07,.55,.03,.85-.14,1.02Zm3.33-.62c-.5-.39-.87-.77-1.21-1.29s-.53-.94-.83-1.81l-.45,.11c.4,1.76,.44,2.56,.21,3.57-.32-.19-.5-.27-.87-.36,.12-.49,.15-.75,.13-1.2-.03-.59-.22-1.57-.7-3.46-.13-.54-.2-.76-.3-1.03,.21-.02,.4-.06,.79-.16l1.3-.33c.38-.1,.55-.15,.73-.22,.03,.19,.06,.31,.16,.73l.32,1.25c.08,.34,.14,.54,.22,.74-.13,.02-.33,.06-.58,.12l-.16,.04c.24,.68,.43,1.04,.74,1.47,.29,.39,.55,.63,.94,.87-.24,.37-.32,.56-.43,.97Z"/></svg>