<?xml version="1.0" encoding="UTF-8"?><svg id="a" xmlns="http://www.w3.org/2000/svg" viewBox="0 0 598.38 939.92"><defs>
<style>.c{fill:#fff;opacity:.2;}</style>
</defs><g class="b"><path class="c" d="M570.7,113.77L534.9,0h5.7l34.75,110.53,20.78,45.72v15.98l-25.43-58.45ZM59.13,465.72c-4.33-2.5-9.39-2.19-12.79,.57L.86,503.26v-61.32l115.29-83.48,8.61-10.21,43.42-29.34,30.01-15.82c6.59-4.06,4.86-14.08-2.71-15.69l-80.29-17L.86,259.96v-25.77l36.84,2.91c8.32,.66,15.58-5.6,16.16-13.92l5.93-84.64c1.28-15.43,5.65-30.45,12.85-44.15l6.8-12.95c4.22-8.04,1.25-17.98-6.7-22.37l-15.2-8.41L9.34,39.55,.86,37.09v-7.83l65.4,16.84,7.5,5.18,14.17,6.63c4.86,1.79,10.25-.77,11.94-5.66l1.26-3.64c1.97-5.7,2.51-11.8,1.58-17.77L97.89,0h8.11l3.6,23.53c.72,4.71,.7,9.51-.06,14.22l-3.53,21.8c-1.04,6.44,3.34,12.5,9.78,13.53l118.59,18.94c3.73,.59,7.13-2.21,7.26-5.98L244.61,0h9.92l-6.01,180.91c-.08,2.5,1.87,4.6,4.37,4.71l117.92,4.79c2.6,.11,4.77-1.98,4.74-4.58l-1.4-35.56L352.52,0h5.83l21.94,144.79,68.39-3.64-1.49-12.85,52.11-9.26,21.8,94.06c.64,2.77,3.45,4.45,6.19,3.71l68.83-18.56v63.6l-43.81,13.06c-4.15,1.24-6.88,5.19-6.56,9.51l2.73,36.97,2.41,8.83,4.49,64.07c.2,2.49,2.65,4.16,5.04,3.46l35.7-10.54v10.3l-38.79,10.79c-2.95,.82-5.33,3-6.4,5.87l-16.85,44.16,62.05-17.25v6.89l-60.4,16.22c-2.88,.77-5.23,2.86-6.34,5.63l-32.56,81.23,64.83,3.81,6.24-3.81,28.24-8.03v6.55c-6.91,1.3-28.1,5.67-34.47,11.55l-67.18-4.12-15.86,38.95c-2.33,5.73-3.51,11.87-3.47,18.05l.78,113.22,120.2-19.61v5.76l-119.79,19.3,1.51,39.91c.44,11.6,2.41,23.08,5.85,34.17l17.59,56.56,94.84-27.62v8.16l-91.78,26.21,11.82,31.47,25.32,38.35h-17.98l-22.54-36.27-16.84-49.59-8.98-2.49-68.67,73.29-2.48,7.8-5.24,7.26h-7.59l7.33-8.63,5.51-13.76,72.53-76.41c1.78-1.88,2.42-4.57,1.66-7.05l-10.64-34.88-1.94-17.63c-.36-3.3-4.21-4.92-6.83-2.88l-175.24,136.94-39.05,24.3h-11.53l42.03-26.16,54.43-42.73c1.22-.96,1.38-2.74,.37-3.9l-57.56-65.96c-5.63-.3-38.92,31.86-38.92,31.86l-2.5-.91-9.54,7.67c-1.18,.95-2.88,.85-3.95-.21-1.32-1.32-1.23-3.48,.18-4.69l11.48-9.82,7.51-.46,24.73-22.11c2.47-2.21,5.22-4.07,8.19-5.53h0c2.01-.99,3.87-2.27,5.52-3.8l22.81-21.11c2.01-1.86,2.2-4.97,.44-7.07l-41.45-49.1c-2.07-2.56-5.91-2.74-8.2-.37l-17.69,18.25c-3.03,3.12-7.93,3.45-11.34,.75l-19.55-15.47c-1.41-1.12-3.47-.82-4.51,.65l-72.86,104.34c-1.51,2.16-4.41,2.83-6.71,1.54l-90-52.4c-2.61-1.52-5.95-.64-7.47,1.97L.86,805.23v-49.9l25.4,11.48,53.59,31.81c1.9,1.13,4.36,.57,5.58-1.28l66.1-100.09c.94-1.43,.67-3.35-.64-4.46l-35.24-29.92-16.12-11.43-24-22.04c-1.86-1.71-4.81-1.34-6.2,.78L.86,735v-11.48l38.01-57.01c1.64-2.45,1.12-5.75-1.19-7.59L.86,629.59v-4.2l37.11,30.39c2.16,1.8,5.41,1.34,6.97-1l24.46-36.56c2.74-4.09,5.9-7.88,9.43-11.31l18.23-17.69c7.3-7.09,13.74-15.02,19.17-23.63l26.84-42.56c1.39-2.21,.67-5.14-1.6-6.44l-82.34-50.87Zm478.81-72.77l-46.5-17.82c-2.72-1.04-5.78,.32-6.82,3.04l-11.96,31.23c-1.94,5.07-4.7,9.79-8.17,13.96l-10.09,12.13c-2.56,3.08-4.68,6.49-6.31,10.15l-4.54,10.2c-1.17,2.62,.03,5.68,2.66,6.82l36.84,15.98,6.02,4.81,14.83,6.7c1.65,.75,3.59-.06,4.23-1.76l33.62-86.9c1.32-3.41-.38-7.25-3.8-8.56Zm-254.54-1.97l-20.69,34.03,17,11.33c.46,.31,.63,.89,.42,1.4l-.17,.4c-.21,.5-.82,.68-1.27,.38l-18.71-12.45-22.31-18.1-27.13,30.28c-2.04,2.26-4.52,4.08-7.29,5.35l-5.29,2.43c-2.98,1.37-5.55,3.48-7.48,6.14l-43.12,59.37,58.15,30.15,17.13,11.38,28.64-41.75,16.07-32.38c.96-1.93,3.3-2.72,5.23-1.75h0c1.55,.78,2.17,2.67,1.37,4.22l-17.74,34.13-27.7,41.07,64.46,43.46c2.38,1.65,5.67,.45,6.43-2.35l9.09-29.47c.9-3.24,.45-6.71-1.24-9.62l-3.07-5.28c-1.94-2.47-2.24-5.86-.76-8.64l58.25-108.85c1.71-3.19,.4-7.17-2.88-8.71l-75.37-36.17Zm-22.72,32.57l20.7-33.55-14.8-7.67c-2.23-1.28-5.05-.83-6.77,1.08l-20.68,22.95,21.54,17.2Zm77.85-109.09c-2.84,0-5.37,1.78-6.34,4.45h0c-2.16,5.96-5.06,11.63-8.64,16.87l-33.32,48.77c-1.02,1.54-.44,3.63,1.23,4.42l90.04,43.65,16.01-35.38c-.84-.3-1.26-1.24-.92-2.06l19.16-44.18c.8-1.84,.06-3.99-1.71-4.94l-40.73-21.62c-2.96-1.57-4.82-4.66-4.82-8.01h0c-.84-2.26-3.13-3.64-5.52-3.34l-24.45,1.38Zm44.99,119.24l46.74,22.5c3.68,1.79,8.1,.13,9.7-3.63l3.5-8.2c1.6-3.75,3.72-7.25,6.29-10.4l10.14-12.43c2.87-3.52,5.23-7.42,7.02-11.59l14.63-34.15c1.05-2.44-.1-5.27-2.56-6.29l-52.29-22.32c-1.67-.69-3.59,.12-4.25,1.8l-20.25,47.56c-.43,1.09-1.62,1.93-2.74,1.61l-15.93,35.51Zm157.57-43.77l-4.44-59.11-22.9,1.52c-2.58,.17-4.34,2.67-3.63,5.16l2.65,11.27,2.07,30.4,26.26,10.76Zm-23.67-107.53c-5.13,.99-8.8,5.54-8.68,10.77l.65,28.74c.08,3.36,2.98,5.96,6.33,5.67l19.29-1.71c2.56-.23,4.47-2.45,4.32-5.01l-2.2-36.71c-.17-2.91-2.87-5-5.73-4.45l-13.98,2.7Zm-137.1-132.45l1.12,27.28,3.83,66.85c.17,3.02,3,5.18,5.96,4.55l114.96-24.37c4.92-1.01,8.07-5.84,7.01-10.75l-17.61-81.54c-.89-4.12-4.87-6.8-9.02-6.09l-26.2,4.5c-4.48,.77-7.63,4.84-7.26,9.37l.58,7.07-73.38,3.12Zm1.14,160.81c-2.53,.43-3.48,3.51-2.84,4.77l.64,1.67c.84,1.36,1.66,1.88,3.53,3.07,29.41,18.8,123.99,54.48,123.99,54.48,1.34,.59,2.83-.45,2.74-1.91l-1.88-22.77-3.79-17.42,.08-40.65c0-3.35-3.08-5.84-6.35-5.13l-90.94,19.83-25.17,4.07Zm-79.35-115.08l.27,62.53c.01,2.53,2.27,4.45,4.77,4.06l66.54-10.5c3.15-.5,5.42-3.3,5.24-6.49l-2.4-43.97c-.13-2.45-2.11-4.4-4.56-4.51l-68.04-2.87c-.99-.04-1.81,.75-1.81,1.74Zm-26.71,75.41l14.43-3.49c3.15-.76,5.36-3.58,5.35-6.82l-.13-62.51c0-2.74-2.2-4.96-4.94-5.01l-37.95-.58c-1.62-.02-2.97,1.25-3.03,2.87l-1.93,52.49c-.56,15.12,13.49,26.6,28.2,23.04Zm43.03,59.69c2.42-3.35,4.33-7.04,5.66-10.95l.33-1.18c.72-1.61-.63-3.38-2.37-3.1l-38.92,5.23c-25.03,4.58-48.87,14.17-70.09,28.21l-9.35,6.18c-1.54,1-1.63,3.22-.19,4.35l36.18,28.66c3.07,2.43,7.53,1.88,9.91-1.22l6.77-8.8c2.44-3.17,6.75-4.22,10.38-2.54l10.09,4.69c2.72,1.06,5.82,.11,7.47-2.31l34.12-47.22Zm-172.6-82.77l26.6-156.21-46.45-6.35-17.39-4.03c-10.23-2.37-20.76,2.55-25.5,11.93l-3.88,7.69c-4.71,9.86-7.49,20.54-8.17,31.46l-7.53,94.57c-.53,6.64,4.48,12.42,11.13,12.84l38.24,2.43,32.95,5.67Zm70.12,15.54c10.67,2.27,20.77-5.73,21.01-16.63l4.44-137.73c.17-5.4-3.81-10.03-9.17-10.68l-53.85-6.5-27.14,157.77,64.71,13.78Zm-71.34,246.59l44.47-60.58c1.71-2.33,3.96-4.2,6.56-5.46l5.81-2.81c3.06-1.48,5.8-3.56,8.04-6.11l31.66-36-5.76-3.12-2.16-3.84-31.99-27.03c-3.09-2.61-7.55-2.84-10.9-.56l-58.7,40.08-65.37,46.6c-3.77,2.69-3.55,8.36,.42,10.74l77.92,48.08Zm13.17,175.6l12.77-17.62c2.92-4.03,2.38-9.61-1.27-13.01l-62.66-58.32c-2.93-2.72-7.51-2.55-10.22,.39l-18.04,19.6c-2.13,2.31-1.91,5.93,.48,7.96l72.34,61.77c2.01,1.71,5.05,1.35,6.59-.78Zm67.36-10.45c.62-.79,.49-1.93-.28-2.56l-30.85-25.42c-.46-.38-1.13-.29-1.49,.18l-2.36,3.18c.76,.97,.76,2.33,.01,3.31l-26.2,34.27c-.93,1.22-2.66,1.49-3.92,.61l-1.78-1.25-2.85,3.14c2.17,2.37,2.45,5.91,.67,8.59l-67.22,101.16c-1.03,1.54-.51,3.64,1.11,4.53l23.26,12.81c1.82,1,4.11,.48,5.31-1.23l74.69-106.1c1.37-1.94,3.93-2.63,6.08-1.63l25.8-33.58Zm52.57,47.12l62.67-64.42c1.41-1.45,1.34-3.78-.15-5.14l-36.61-34.9c-2.09-2-5.44-1.8-7.29,.43l-20.05,23.93c-1.71,2.04-4.75,2.28-6.76,.54-1.67-1.45-1.85-3.98-.39-5.65l20.87-25.5c1.08-1.24,.83-3.15-.54-4.06l-72.87-49.57c-2.87-1.95-13.44-9.4-16.48-11.09l-44.79-23.51c-2.42-1.34-5.46-.53-6.89,1.84l-25.85,43.06c-2.11,3.51-4.53,6.83-7.22,9.91l-5.63,6.43c-2.08,2.38-1.9,5.97,.39,8.13l64.15,59.76c2.76,2.57,7.13,2.2,9.42-.79l1.17-1.53c.81-1.06,2.28-1.38,3.45-.75h0l2.44-3.35c1.02-1.39,2.99-1.65,4.33-.56l31.27,25.47c1.66,1.35,1.97,3.76,.72,5.49l-25.74,33.58,19.94,17.68c2.39,2.12,6.05,1.92,8.19-.46l24.09-26.72,4.97,3.21v3.8l13.04,14.57c1.61,1.8,4.42,1.88,6.12,.16Zm24.56,38.2c1.51,1.91,4.31,2.17,6.15,.57l71.68-62.24c1.35-1.16,1.42-3.21,.17-4.47l-31.53-31.53c-1.34-1.34-3.51-1.34-4.85,0l-64.11,64.49c-1.7,1.71-1.83,4.42-.31,6.28l22.81,26.9Zm150.16,5.78l-64.72-63.96c-1.2-1.2-3.13-1.26-4.4-.14l-74.05,65.21-4.8,7.77-22.73,19.77c-1.67,1.54-1.8,4.12-.31,5.82l53.83,61.29c1.24,1.38,3.34,1.56,4.8,.42l111.88-87.42c2.78-2.17,3.02-6.3,.51-8.78Zm51.14-268.26c.7-1.74-.1-3.72-1.81-4.49l-83.34-37.63c-2.55-1.17-5.56,0-6.66,2.57l-8.46,19.78c-1.15,2.69-1.24,5.72-.25,8.48,.83,2.32,.76,4.86-.19,7.13l-30.41,71.95c-.66,1.57-2.51,2.24-4.03,1.47-1.37-.7-1.97-2.34-1.37-3.76l28.27-66.41c.85-2,.18-4.31-1.61-5.55l-1.78-1.23,14.07-34.33c1.13-2.75-.1-5.9-2.8-7.16l-31.12-14.52c-2.18-1.02-4.78-.14-5.9,1.99l-55.38,105.24c-1.23,2.34-1.2,5.15,.1,7.46l3.82,6.82c1.62,2.9,2.01,6.32,1.09,9.51l-11.26,38.87c-.9,3.11,0,6.46,2.31,8.71l151.33,148.39,6.9-4.6-1.55-144.49c-.2-5.97,.83-11.92,3.02-17.48l37.02-96.72Z"/></g></svg>